<?xml version="1.0" encoding="utf-8"?>
<!-- Generator: Adobe Illustrator 20.0.0, SVG Export Plug-In . SVG Version: 6.00 Build 0)  -->
<svg version="1.1" id="Layer_1" xmlns="http://www.w3.org/2000/svg" xmlns:xlink="http://www.w3.org/1999/xlink" x="0px" y="0px"
	 viewBox="0 0 32 32" style="enable-background:new 0 0 32 32;" xml:space="preserve">
<style type="text/css">
	.st0{fill:#00FF00;}
</style>
<path class="st0" d="M7.9,8.6c0,0,0.3-0.8,0.8-0.5c0.5,0.3,1.6,1.1,1.7,1.9c0.2,0.8-0.5,0.8,0.9,1.1s1.2,1.7,1.2,1.7
	s0.6,0.9,2.3,0.3c0,0-0.3-0.6,0.9-0.2c1.2,0.4,3.7,0.3,3.7,0.3s1.7-0.9,1.6-1.7c-0.2-0.8-0.3-1.3-0.3-1.3s0.6,0.6,1.1,0.4
	c0.5-0.2,1.5-1.2,0.9-1.5s1.4-0.4,1.4-0.4s0.6-2-1.7-0.7c0,0-0.9-0.4,0.4-2.1c0,0,1-2.2,0.4-2s-0.9,0-0.9,0s0.9-1.4,2.9-0.9
	s1.5,1.6,1.5,1.6L28,4.6c0,0,0.1,1,0.5,0.9s1-1.3,1-1.3s1.3-0.4,1,1.9c-0.3,2.3-0.3,1-0.3,1s-0.4,0.3,0.1,1c0.5,0.7-0.8,0.6-0.8,0.6
	v0.9c0,0,0.2,0.8-0.3,0.8s-0.9,1.2-0.9,1.2l-1.1,1.6c0,0,0.4-1.3-0.4-1c-0.8,0.3-1.3,1.2-1.3,1.2s-0.8,1,0.7,1.1
	c1.5,0.1,0.9-0.9,0.9-0.9s1.5,0.5,0.8,1.3c-0.7,0.8-2,1-1.1,1.9c0.9,0.9,1.3,1,1.3,1s0.9,0.3,0.8,0.9c-0.2,0.6-1.3,0.9-1.3,0.9
	s1.3-0.6,1.3,0c0.1,0.6,0.4,1.5-0.2,1.3c0,0,0.1,2.4-0.6,1.9s1.3,1-0.1,1.3c-1.3,0.3-0.9,1-0.9,1s0.1,1.3-1.6,1.5h-1
	c0,0-0.5,1-1.3,0.9c0,0,0.2,0.8-0.3,0.9s-0.1-1.2-0.6-1s-0.8,0.2-0.8,0.2s-1.6-2.3-2.9-1.5c-1.3,0.9-1.5,0.2-1.5,0.2
	s0.3,1.2-0.3,1.3c-0.6,0.1-1.4-0.7-1.4-1.2s-0.9-0.4-0.9-0.4s1-1.2,0.7-1.9s-1.7-1-1.7-1s0.6-0.9-0.1-0.9s-2.7,1.2-2.7,1.2
	S9,22.9,7.9,23.1c-1.1,0.2-2.3-1.3-2.3-1.3l-0.9-0.4L4,19.1c0,0,1.7-1.6,0.9-2.3S3.6,17,3.6,17s-0.6-1.6-1.5-1.2v-0.8l-0.6-0.9
	c0,0,0.9-0.8,1.7-0.8s2.1-1.5,2.1-1.5l0.1-1.3l0.8,0.3l0.3-1L6.9,9L7.9,8.6z"/>
</svg>
