<?xml version="1.0" encoding="utf-8"?>
<!-- Generator: Adobe Illustrator 20.0.0, SVG Export Plug-In . SVG Version: 6.00 Build 0)  -->
<svg version="1.1" id="Layer_1" xmlns="http://www.w3.org/2000/svg" xmlns:xlink="http://www.w3.org/1999/xlink" x="0px" y="0px"
	 viewBox="0 0 32 32" style="enable-background:new 0 0 32 32;" xml:space="preserve">
<style type="text/css">
	.st0{fill:#FF5500;}
</style>
<path class="st0" d="M6.3,9h2c0,0,3.2-2.5,2.8-3l0-1.6c0,0-0.7-0.2-0.5-0.9c0.3-0.6,2.5,0,2.5,0s1-1.4,2.4-1.3
	c1.3,0.1-0.2,2.1-0.2,2.1s-0.5,0.6-0.7,1c-0.2,0.4,1,2.8,1,2.8l0.1,1.8l2,1.8c0,0,2,0.7,2.7,0.4c0,0,0.1-1.1,0.4-1.1
	s0.5-0.2,0.8,0.9c0,0,1.3,0.4,2,0.5v-1c0,0,3.5-1.6,4.3-1.4c0.7,0.2,0,1,0,1l-0.1,1.3c0,0-0.6,0.6-1.2,0.5l0.1,0.7L25,14.8l-0.5,2.5
	c0,0-0.2,0.9-0.5,0.6c0,0,0-3.1-0.3-3.1s-1.2,0.2-1.3,0c-0.1-0.2-1-1.2-0.8-1.3c0.2-0.2-1.2-0.2-1.2-0.2s-0.1,0.9,0.1,1.2
	c0.2,0.3-0.2,0.7-0.2,0.7l1.2,0.9c0,0-1.2,0.4-1.3,0.8s-1,1.9-1,2.2c0.1,0.4-0.8,0.6-0.8,0.6l-1.3-0.1l-0.4,1.1c0,0-1.3,1.8-3.5,1.8
	l-0.1,3.3l-0.7,1.1v0.8c0,0-1.3,1.8-1.9,2c-0.6,0.2-1.3-0.6-1.1-0.8c0.2-0.2-1.1-1.3-0.9-1.6c0.2-0.4,0.5-1.8,0.1-1.7
	c-0.4,0.1-1.9-4-1.9-4.9c-0.1-0.9,0.4-4.8,0.5-5.3c0.1-0.4-1.4,0.5-2.1,0S4,14.4,4.5,13.3l0.9,0.1c0,0-1.6-0.1-1.4-1.2
	c0,0,2.2,0.7,2.6,0.1S6,10.7,5.6,10.5S6.3,9,6.3,9z"/>
</svg>
