<?xml version="1.0" encoding="utf-8"?>
<!-- Generator: Adobe Illustrator 20.0.0, SVG Export Plug-In . SVG Version: 6.00 Build 0)  -->
<svg version="1.1" id="Layer_1" xmlns="http://www.w3.org/2000/svg" xmlns:xlink="http://www.w3.org/1999/xlink" x="0px" y="0px"
	 viewBox="0 0 32 32" style="enable-background:new 0 0 32 32;" xml:space="preserve">
<style type="text/css">
	.st0{fill:#FF0000;}
</style>
<g>
	<path class="st0" d="M3.4,13l0.9,0.2l0.7,1.2v1.1l1.2,1.2v0.7l2.4,1.9c0,0,0.5,0.4,1,0c0.5-0.4,0.9-0.2,1.3-0.5s0.3-0.9,0-1.1
		S9,16.1,9,16.1s0.6-0.8,0-1s-1,0-1,0L7.2,14L6,13.7l-1.5-2.2l-0.9-0.2c0,0-0.2-0.4-0.5-0.2s-1.2,0-1.2,0v0.6L3.4,13z"/>
	<path class="st0" d="M11.1,19.3c0,0,1-0.1,1.1,0.2c0.1,0.3,2.6,0.4,2.6,0.4h2.3l0.8,0.4v-0.8l-0.2-0.5c0,0-0.2,0.5-0.6,0.4
		c-0.3-0.1-1-0.8-1-0.8l-1.8,0.1c0,0-0.4,0.3-0.7,0.4c-0.3,0.1-1.1-0.1-1.1-0.1l-0.9-0.4C11.6,18.4,10.7,18.8,11.1,19.3z"/>
	<path class="st0" d="M18.7,19.2c-0.3,0-0.7,0.5-0.5,0.6c0.2,0.1,0.7,0.1,0.7,0C18.9,19.7,19.2,19.2,18.7,19.2z"/>
	<path class="st0" d="M19.4,19.1c0,0-0.2,0.7,0,0.6c0.2-0.1,0.8-0.3,0.8-0.4s0.5-0.5,0.5-0.5C20.6,18.8,19.5,18.7,19.4,19.1z"/>
	<path class="st0" d="M21.5,19.2c0,0.2-0.4,0.7,0,0.7s1.3,0.6,1.3,0.1s-0.7-0.7-0.7-0.7L21.5,19.2z"/>
	<path class="st0" d="M22.8,18.3c-0.4,0.1-0.6,0.5-0.6,0.5s1.4,0.3,1.5,0c0,0,1.1-0.1,0.9-0.4c-0.2-0.3-1-0.2-1-0.2H22.8z"/>
	<path class="st0" d="M13.9,12.5L13.5,13v1.4c0,0,0.3,1.6,0.9,1.8c0.6,0.1,2.2,0,2.2-0.5c0,0,0.9,0,1,0.5c0.1,0.5,1,0.3,1,0.3
		s1.1-0.4,0.8-1.1c-0.2-0.7,0.7-1.4,0.7-1.4v-1.7c0,0,0.9-0.4,1-0.6c0.1-0.2,0.3-0.2-0.2-0.8c-0.5-0.6,0.5-0.6-0.6-0.8l-0.1-1.1
		l-0.8,0.1c0,0,0,1.2-0.9,1.4S16.9,12.4,13.9,12.5z"/>
	<path class="st0" d="M22.4,12.7l-1,2.4c0,0,0.1,0.3,0.5,0.7c0.4,0.5,0.2,1.2,0.2,1.2s0.5,0.2,0.9-0.2s-0.2-0.8-0.2-0.8
		s0-0.9,0.3-0.7s-0.1,0.8,1.6,0.5c0,0,0.6-0.3-0.2-1c0,0,0.9-0.8,0.2-1.3c-0.7-0.6-1-0.3-1-0.3s1.8-0.5,1.5-0.8
		c-0.4-0.3-1.3,0.2-1.3,0.2h-1c0,0-0.1-1,0.4-1c0.6,0,2.8-0.1,3.1-0.9s0.2-1.2,0.2-1.2s-0.5,0.9-1.2,0.8c-0.7,0-2.3,0.2-2.3,0.2
		l-0.5,1l-0.6,1.7L22.4,12.7z"/>
	<path class="st0" d="M30.5,12c0,0-1.2,0.3-1.4,0.7c-0.2,0.4,0.7,0.7,1.4,0.3c0.6-0.4,1.3-0.7,0.8-0.8C30.9,12,30.5,12,30.5,12z"/>
</g>
</svg>
