<?xml version="1.0" encoding="utf-8"?>
<!-- Generator: Adobe Illustrator 20.0.0, SVG Export Plug-In . SVG Version: 6.00 Build 0)  -->
<svg version="1.1" id="Layer_1" xmlns="http://www.w3.org/2000/svg" xmlns:xlink="http://www.w3.org/1999/xlink" x="0px" y="0px"
	 viewBox="0 0 32 32" style="enable-background:new 0 0 32 32;" xml:space="preserve">
<style type="text/css">
	.st0{fill:#BD94BD;}
</style>
<g>
	<path class="st0" d="M14.2,3.6c0,0,1.1,0.6,1.1,1.6s0,2.7,0,2.7l0.9,1.3c0,0,1.4,0.6,1.2,0C17,8.5,15.9,7,16.4,7
		c0.5,0,1.8-0.2,1.9,0.7s1.2-1.2,1.2-1.2L19.1,5l0.5-1.4c0,0-1.7-1.3-2.7-0.9S14.2,3.6,14.2,3.6z"/>
	<path class="st0" d="M18.4,10.4c0,0-1.2-1.6-1.5,0.9c0,0,2.2,1.2,1.5,4.6c0,0,0.8,1.2-1.5,1.4c0,0,0.6,0.8,0,2.8
		c0,0-2.6,0.1-2.7,1.1c0,0-1.9,1.4-1.3,2.3s1.9,0,1.9,0s1.3-2.1,2.1-1.1c0.8,1,1-0.3,1-0.3s-1.3-0.8-0.2-1.4c0,0,1.9,0.8,1.9-0.3
		s0.3-2.9,0.9-2.4s1-0.8,0.4-1.1s0.1-2.9-0.8-3.3c-0.9-0.4,0.6-1.3-0.5-2.2C18.4,10.4,18.4,10.4,18.4,10.4z"/>
	<path class="st0" d="M10.9,26.2l0.5,1.2l0.6-1.2c0,0,1.4,0.7,0.8,2c-0.7,1.3-0.7,1.3-0.7,1.3l2.1-0.5v-2.1c0,0,0.2-1.6-1.7-1.5
		S10.9,26.2,10.9,26.2z"/>
	<path class="st0" d="M15.1,25.2l1.9-1c0,0-0.6-1.2-1-0.9c-0.3,0.3-1.5,0.9-1.5,0.9L15.1,25.2z"/>
</g>
</svg>
