<?xml version="1.0" encoding="utf-8"?>
<!-- Generator: Adobe Illustrator 20.0.0, SVG Export Plug-In . SVG Version: 6.00 Build 0)  -->
<svg version="1.1" id="Layer_1" xmlns="http://www.w3.org/2000/svg" xmlns:xlink="http://www.w3.org/1999/xlink" x="0px" y="0px"
	 viewBox="0 0 32 32" style="enable-background:new 0 0 32 32;" xml:space="preserve">
<style type="text/css">
	.st0{fill:#7BCECE;}
</style>
<path class="st0" d="M6.2,3.5L5.4,6.1v5.3l0.4,4l-0.4,3.5l0.4,5.6c0,0,2.6-1.9,3,1.4v2c0,0,3-1.1,4,0c0,0,3.4-0.4,5.3,1.7
	c0,0,2.7,1,5.1-1.7s1.5-3.7,1.5-3.7l1.8-2.2c0,0,0.8-2.7-2.4,0l-1.9-0.3l-1.4-0.6l0.4-1.2l-0.3-2.1l-1.3,1c0,0,1.4-3.6-0.6-5
	c0,0-1.5-1.8-3.5-3.4c0,0,0.1-3.3-0.4-3.4c-0.6-0.1-1.4-0.9-1.4-0.9l-1.3-2.6c0,0-0.7-1.8-2.2-1.1L9.5,3.7L6.2,3.5z"/>
</svg>
