<?xml version="1.0" encoding="utf-8"?>
<!-- Generator: Adobe Illustrator 20.0.0, SVG Export Plug-In . SVG Version: 6.00 Build 0)  -->
<svg version="1.1" id="Layer_1" xmlns="http://www.w3.org/2000/svg" xmlns:xlink="http://www.w3.org/1999/xlink" x="0px" y="0px"
	 viewBox="0 0 32 32" style="enable-background:new 0 0 32 32;" xml:space="preserve">
<style type="text/css">
	.st0{fill:#FF9C9C;}
</style>
<path class="st0" d="M10,4.9L9.1,5.4V9l1.6,1.6v2.5c0,0,0.5,1.9,2.2,3.1V21c0,0,0,2.3-1.9,2.6l0.8,3.1l1.3,1.7c0,0,2.5,1.7,3.4,0.9
	c0.9-0.8-0.6-1.5-0.6-1.5l-2.8-0.9l-0.2-2l1.2-1.5v-6.2c0,0,1-1.7,1.8,0.4l2.8,0.6v-3.5l4.2-2.7V9.3c0,0-1.1-1.7-1.7-1.4
	c-0.6,0.3-0.7-1.4-0.7-1.4s-1.4-0.4-2.3,0.8s-1-0.7-1-0.7H15V4.9h-1.4l-0.1-2.4L10,4.9z"/>
</svg>
