<?xml version="1.0" encoding="utf-8"?>
<!-- Generator: Adobe Illustrator 20.0.0, SVG Export Plug-In . SVG Version: 6.00 Build 0)  -->
<svg version="1.1" id="Layer_1" xmlns="http://www.w3.org/2000/svg" xmlns:xlink="http://www.w3.org/1999/xlink" x="0px" y="0px"
	 viewBox="0 0 32 32" style="enable-background:new 0 0 32 32;" xml:space="preserve">
<style type="text/css">
	.st0{fill:#00FF00;}
</style>
<g>
	<path class="st0" d="M9.3,4.3v1.6L7.1,7.3v4.2l1.6,1.6V14l0.6,0.4v0.6h2.5c0,0,0.6-1,1.3-0.7c0.8,0.3,1.9,0.2,1.9,1
		c0,0.8,0,1.8,0,1.8s1.3,1.6,1.4,2.8c0.1,1.2,0,1.7,0,1.7s-0.8,0.3-0.6,1.3c0.2,1,0.6,2.2,0.6,2.2s0,3.6,0.6,4.3
		c0.6,0.7,2.9,0.4,2.9,0.4l2-3.2v-0.6l0.5-0.1V24l2-1v-2.6l-0.6-0.1c0,0,0.4-2.6,1.5-3.6l0.5,0.1l1.7-3.5c0,0,0.5-1.5-1.6-0.6
		L25.5,13c0,0,0.9-1.3-1-1.2l-1.2-2.4L23,7.7L22.7,7c0,0,0.4-1.8-2.1-1.9L19,5.1c0,0,0.3-1.6-0.7,0.1L17.3,5c0,0-0.7-0.6-1.8-0.5
		l-0.2-2c0,0-2.5-0.6-3.4,0.5l-1.1,0.5c0,0-0.1-0.9-0.7-0.5S9.3,4.3,9.3,4.3z"/>
	<path class="st0" d="M26.6,17.5l-0.3,0.8c0,0,0.7,0.5,0.7,0.2S26.6,17.5,26.6,17.5z"/>
	<path class="st0" d="M27,21.4c0,0-1,1.3-1.3,2.1c-0.3,0.8-0.5,0.5-0.6,1.6c-0.1,1,0.3,0.9,0.3,0.9l0.8-1v-1l0.7-0.5
		c0,0,0.9-0.6,0.8-1.1S27,21.4,27,21.4z"/>
</g>
</svg>
