<?xml version="1.0" encoding="utf-8"?>
<!-- Generator: Adobe Illustrator 20.0.0, SVG Export Plug-In . SVG Version: 6.00 Build 0)  -->
<svg version="1.1" id="Layer_1" xmlns="http://www.w3.org/2000/svg" xmlns:xlink="http://www.w3.org/1999/xlink" x="0px" y="0px"
	 viewBox="0 0 32 32" style="enable-background:new 0 0 32 32;" xml:space="preserve">
<style type="text/css">
	.st0{fill:#00FFF8;}
</style>
<g>
	<path class="st0" d="M13.6,17.6c0,0-1,3.2,0,4s1.7,2.6,1.7,2.6s0.7,1.9,1.2,1.9s0-1.9,0-1.9s1.6,1.2,1.7,2.3
		c0.1,1.1,0.1,1.7,1.4,1.7s1,0.6,1,0.6s0.7-0.6,1,0.4s0.4,1.4,1.1,1.1s0-1.8,0-1.8l-0.4-2l-1.7,0.8c0,0-1.2,0.6-1.1-0.9
		c0.1-1.5,1.3-2.3,1.3-2.3s2-0.5,2.2,0c0.3,0.5,0.4,1.4,0.7,1.2c0.3-0.2,0.8-0.5,0.6-1.2c-0.2-0.7,0.4-2.1,0.8-1.8
		c0.4,0.2,0.2-0.1,0.4-1.1s1.5-1.2,1.5-1.2v-1.2c0,0,0.8,1,1.2,0.7c0.4-0.3,1-0.9,1-0.9s-1-0.8-1.7-0.8c-0.7,0-0.6-0.6,1.4-0.9
		c2-0.3,0.9-1.1,0.9-1.1s-1.7-0.2-1.4-0.7s-0.2-1.1-0.2-1.5S27,12.7,27,13s0.2,1.4-0.2,1.2c-0.4-0.2,0.3-1.5-0.4-1.3
		c-0.7,0.2-0.7-0.8-1-0.7s-1.1,0.2-1.1,0.9c0,0.7,0.7,0.3,0.5,1.1c-0.2,0.8-1,0.5-0.7,1s0.1,1.2-0.2,1.2c-0.3-0.1-0.9-0.3-0.4-1.2
		c0.4-0.8-1.1-0.4-1.1-0.4s0.6-0.6-0.6-1c-1.1-0.4-1.9-0.4-1.9-0.4s0.8-1.6,1.9-1.9c1.1-0.3,0.4-0.9,0.4-0.9s0.6,1.8,1.4,0.9
		c0.7-0.9-1-0.8-0.2-1.1s0.2-0.9,0.6-0.8c0.3,0.1,0-1-0.2-0.8s1.1-0.9,1.9,0.7s-0.6,1.2-0.6,1.2s0.4,0.8,1.1,0.9
		c0.7,0.1,0.2,1.6,1.5,0.2c0,0-0.6-1.2,0.2-1.1c0.8,0.1,1.6-0.6,1-0.7c-0.6-0.1-2.1-0.1-1.8-0.4c0.3-0.3,0.5-1.5-0.7-1.6
		C24.9,8,25.3,6.6,24,7c-1.2,0.4-0.9,0.4-0.7,1.1c0.2,0.7-1.1-1.1-1.1-1.1S22,8.5,22.8,8.6s-1.1,0.2-1.1,0.2l-0.6-1.3
		c0,0,0.7,0.1,0.6-0.6c-0.2-0.7-1.2,0-1.2,0S20,8.2,20.3,8.5s1.2,0.9,0.3,0.9c-0.9,0-1-0.7-1-0.7s-0.7,0.8-0.3,1
		c0.4,0.2-0.2-0.3-1-0.2s-1.5-0.1-1.4,0.2c0.1,0.4-1.3,0.8-1.2,0.3c0.1-0.5,0.3-1.3,0.5-1.1c0.2,0.2,0.6-0.4,1.4-0.4
		s1.8,0.2,1.3-0.1c-0.5-0.4-0.9-1.1-0.7-1.6C18.3,6.1,17,7.4,17,7.4l-1.9-0.2L15,6.2c0,0-1.8,0.4-1.8,0.9c0,0.4,0.6,1.1,1.3,0.6
		c0.7-0.5,0.6,0.5,1,0.5c0.4,0-0.2,0.9-0.5,0.7S13.5,9,13.2,8.7c-0.4-0.2-1.7-0.6-2.7,0.1c-1,0.7-3.9-1.2-3.9-1.2S2.9,8,2.9,9.6
		s0.7,0.7,0.7,0.7L1.9,9.6c0,0,0.4,2.2,0.8,1.7c0.4-0.5,0.9,0.1,0.9,0.1s-1.5,0.7-1,0.9s1.3,0.9,1.7,0.9c0.4,0-1.2,1.2-1.2,1.2
		l1.7-0.4l1.1,0.5c0,0-0.7-1.2-0.2-1.4s2.8-0.3,2.8-0.1s1.1,1.1,1.4,0.9s1.1,0.5,1.1,0.9s1.4,1,1.2,1.7s0.9,0.9,0.9,0.9L13.6,17.6z"
		/>
	<path class="st0" d="M26.2,27l-0.5,0.6c0,0,0.7,0.4,1,0.2s0.6-0.9,0.3-0.8S26.2,27,26.2,27z"/>
	<path class="st0" d="M23.8,25.8c0,0-0.5,0.8,0,0.8s1.3,0.4,1.3,0.4l-0.6-1.2H23.8z"/>
	<path class="st0" d="M14.2,5l-0.6,0.4c0,0,0.4,0.6,0.8,0.5s0.4-0.7,0.4-0.7s0.1,1,0.4,0.9C15.7,6.1,16,6.5,16,6.5s1.1,0.2,1.2,0
		s1.1-0.2,0.4-0.7c-0.7-0.5-1,0-1,0S16.1,6.1,16,5.7c-0.1-0.3-0.8-0.3-0.8-0.3l0-0.6C15.2,4.8,14.4,4.6,14.2,5z"/>
	<path class="st0" d="M18.1,4c0,0-0.3,0.8,0,0.8c0.3,0,0.8-0.4,0.9,0s0.7,0.8,0.7,0.5c0-0.2,0.1-1.1-0.2-1c-0.3,0.1-0.9-0.3-0.9,0
		C18.6,4.6,18.1,4,18.1,4z"/>
	<path class="st0" d="M21,3l-0.4,0.7l0.6,0.8c0,0-0.5,0.5,0.4,0.3s1.4-0.7,1.5-0.2c0,0.5-0.5,0.9-0.9,0.7c-0.4-0.2,0,0.6,0,0.6
		S21.1,5,21,5.4c-0.1,0.4,0.1,1,0.2,1c0.1,0,1.2,0.4,1.5,0.2s1.8,0.3,1.6-0.1c-0.2-0.5-1.7-0.3-1.7-0.3s0.2-0.6,1-0.5S24.5,5,24.4,5
		c-0.1,0,1.2-0.1,1.2-0.1S24.7,4.1,25.3,4c0.6-0.2,1.9-0.2,1.9-0.2l1.4-0.9c0,0,0.6-0.9-0.8-0.8c-1.4,0.1-3.1,0-3.1,0
		S24.1,2.3,24,2.6c-0.1,0.2-0.9,0.4-1.3,0.4s-0.9-0.4-0.9-0.2C21.7,2.9,21,3,21,3z"/>
</g>
</svg>
