<?xml version="1.0" encoding="utf-8"?>
<!-- Generator: Adobe Illustrator 20.0.0, SVG Export Plug-In . SVG Version: 6.00 Build 0)  -->
<svg version="1.1" id="Layer_1" xmlns="http://www.w3.org/2000/svg" xmlns:xlink="http://www.w3.org/1999/xlink" x="0px" y="0px"
	 viewBox="0 0 32 32" style="enable-background:new 0 0 32 32;" xml:space="preserve">
<style type="text/css">
	.st0{fill:#FF5500;}
</style>
<g>
	<path class="st0" d="M5.1,8.4c0,0-0.7-0.1-0.9,0.6c0,0-0.9-0.1-0.5-2.3c0,0,0.6-0.7,1.4-0.5c0,0,0.7,0.5,1.1,0.5
		c0.4,0,0.3-0.9,0.3-0.9s0.6-0.7,0.9-0.6c0,0,0.5-0.7,1.7-0.3c0,0,2,1,2.9,0.9c0,0,0.8,1.1,1.1,1.1c0,0,0.6-0.8,1.5-0.2
		c0,0,0.8,0.4,1.5-0.7c0,0,0.4-0.3,0.9,0.1c0,0,0,0.5,0.6,0.5c0,0,0.5-0.6,1.7-0.2c0,0,1.8,1,2.6-1.1c0,0,0.6-0.3,1.4,0.8
		c0,0,0.8,0.9,1.5,1.2c0,0,0.3,0.6,0,0.8c0,0-1.2-0.2-0.4,0.8c0,0,1.2-0.5,1.5-0.2c0.3,0.3,0,1.1,0,1.1s-1.7,0.3-1.7,0.6
		c0,0-0.2-0.1-0.3,0.7c0,0.8-0.1,1.5-0.1,1.5s-0.8-0.6-0.9-1.1s-0.7-0.8-0.7-0.8s-0.8,0.2-0.5,0.8c0,0,0.4,0.1,0.3,0.8
		c0,0-0.1,0.5,0.2,0.8c0.3,0.3-0.1,2.2-0.1,2.2s-1,1-1.7,1.2S19.8,17,19.2,17c-0.6,0-0.2,0.8-0.2,0.8s0.7,0.5,0.3,0.9
		c0,0-0.7-0.4-0.4,1.4c0,0-0.2,0.5-0.9-0.3c0,0-0.9-1.2-0.6,0.4c0,0,0.3,0.9,0.8,1.2c0,0,0.3,1.3-0.5,1.1c-0.8-0.2,0.5,0.8,0.5,0.8
		s0.4,0.3,0.4,1.1c0,0.8,0.7,0.6,0.7,0.6s0.7,0,0.6,0.5c-0.2,0.5-0.8,0.3-0.8,0.3l-0.8-0.4c0,0,0.1-0.5-0.3-0.8s-0.5-0.3-0.8-0.5
		C16.9,24,16.8,23,16.8,23s-0.2-0.3-0.6-0.8c-0.4-0.5,0.3-0.7,0.3-0.7s0.5,0.6,0.7,0.7c0.2,0,0-0.8,0-0.8l-0.6-0.5
		c0,0-0.3-2-0.2-2.3c0.2-0.3-0.6-0.3-0.6-0.3s-0.1-0.5,0.1-0.8c0,0-0.5,0.3-0.9-0.1c0,0,0.6-1.1-0.3-0.9c0,0-1,0-1.4,1.2
		c0,0-1.6-0.2-1.4,2.2c0,0,0.8,0.7,0.6,1.2c-0.2,0.5-0.9-0.3-0.9-0.3l0-0.3l-0.6,0.1c0,0-0.2-0.5-0.2-1c0-0.5-0.7-1.1-0.7-1.1
		s-0.3-1.5,0-1.8c0,0-0.7,0.5-1-0.2c-0.3-0.6-1.1-1.2-1.1-1.2s-1,0.1-1-0.2s0.1-0.8,0.5-0.9c0.4-0.1,0.9,0.3,1-0.8
		c0.2-1.1,1.2-1.5,1.2-1.5s0.5-0.6-1.3-0.4c0,0-0.6,0-1.1,0.9c0,0-1.2-0.3-1.5-1c0,0-0.8,0.1-1-0.2C5.1,10.8,5,9.9,5.1,8.4z"/>
	<path class="st0" d="M27.1,9.1c0,0,0.2,0.8,0,1.1c0,0,0.8,0.3,1.2-0.6C28.8,8.8,27.1,9.1,27.1,9.1z"/>
	<path class="st0" d="M24.7,12.9c0,0,0.2,0.1,0.5-0.5c0,0,0.8,0.3,0.7-0.6c0,0,0.8,0,0.8-1.1c0,0,1.4-0.3,0.4,1.1
		c0,0,0.5,0.6-0.7,0.9C26.4,12.7,26.4,13.5,24.7,12.9z"/>
	<path class="st0" d="M22.5,15.7c0,0-0.5,0.3-0.5,0.6c0,0.3,0.5,0,0.5,0S23.1,15.7,22.5,15.7z"/>
	<path class="st0" d="M19.3,17.3c0,0,0.5-0.3,0.6,0c0.2,0.3-0.3,0.5-0.3,0.5S19,17.6,19.3,17.3z"/>
	<path class="st0" d="M22.2,17.7v0.7c0,0,0.2,0.3-0.2,0.2c0,0,0.2,0.3-0.6,0c0,0,0.2,0.8,0.9,0.3s0-1.2,0-1.2H22.2z"/>
	<path class="st0" d="M21.6,19.4v0.5c0,0,0.2,1.2,0.6,1.2c0.4,0.1,0.5-0.3,0.5-0.3s0.7-0.1-0.2-0.8C21.6,19.4,21.6,19.4,21.6,19.4z"
		/>
	<path class="st0" d="M20.5,21c0,0-1.1,1.7-1.8,1.6c0,0-0.7,0.8,0.9,1.5c0,0,0.7,1,1.1-0.7C21.1,21.8,20.5,21,20.5,21z"/>
	<path class="st0" d="M21.6,23.4l0.9-0.3c0,0,0.1-0.4-0.2-0.4s-0.3-0.1-0.7,0s-0.9,1.5-0.9,1.5s-0.3,0.7,1.3,0.4l-0.5-0.9
		C21.6,23.7,21.4,23.4,21.6,23.4z"/>
	<path class="st0" d="M23.1,22.9c0,0-0.1,0.5,0.1,0.5c0.2,0,0.4-0.2,0.4-0.3S23.1,22.9,23.1,22.9z"/>
	<path class="st0" d="M24.2,23.4V24c0,0-0.1,0.1,0.7,0.5s0.6,1.2,0.6,1.2s1.6,1,1.2-0.4c-0.3-1.4-0.5-1.2-0.5-1.2S24.6,24,24.2,23.4
		z"/>
</g>
</svg>
