<?xml version="1.0" encoding="utf-8"?>
<!-- Generator: Adobe Illustrator 20.0.0, SVG Export Plug-In . SVG Version: 6.00 Build 0)  -->
<svg version="1.1" id="Layer_1" xmlns="http://www.w3.org/2000/svg" xmlns:xlink="http://www.w3.org/1999/xlink" x="0px" y="0px"
	 viewBox="0 0 32 32" style="enable-background:new 0 0 32 32;" xml:space="preserve">
<style type="text/css">
	.st0{fill:#001FFF;}
</style>
<g>
	<path class="st0" d="M8.9,12.6c0,0-3-0.7-3.5,2.7c0,0-1.3,0.3-0.6,1.2c0.6,0.9,1.6,3.4,1.3,4.3c-0.3,1,0.7,1.9,0.7,1.9
		s0.7-0.2,0.9-1.1s2,0.3,2,0.3s0.2-1.7,1.5-1.1c0,0,1.4-1.2,4.1-0.3s3.5,2.9,3.5,2.9l1.5,1.2h3l0.5-0.9l1.2,0.1v-2.1l1-0.2
		c0,0-0.1-0.6,1.5-1.4v-2.7c0,0-1,0.2-1-1.7l-1.2-0.1c0,0,0.9-2.7-3.6-4.1l-0.5-2h-1l-0.1-1.1l-1.2-0.5c0,0-0.3,2.8-0.6,3.1
		S16.3,10.8,16,10c-0.3-0.9,0.9-1.4,0.9-1.4s0.8-0.9-2.9-0.7l-1.7,1.5c0,0-0.8,0.5-1.8-0.6l-2,1.6C8.5,10.5,9.2,11.4,8.9,12.6z"/>
	<path class="st0" d="M23.3,26.8c0,0-1,0.3-0.6,0.9c0.3,0.6,1.4,1.1,1.4,1.1s1.2-0.1,0.8-1C24.3,26.9,23.3,26.8,23.3,26.8z"/>
	<path class="st0" d="M18.7,1.8v1.8c0,0,1.3,1.2,0.6,2c0,0,1.7-0.7,2.6,0.8c0.9,1.4,1.8,0.8,1.8,0.8l-1.2-1.8c0,0-0.6-0.7-0.6-1.6
		l-1.3-0.1l0.5-1L18.7,1.8z"/>
</g>
</svg>
