<?xml version="1.0" encoding="utf-8"?>
<!-- Generator: Adobe Illustrator 20.0.0, SVG Export Plug-In . SVG Version: 6.00 Build 0)  -->
<svg version="1.1" id="Layer_1" xmlns="http://www.w3.org/2000/svg" xmlns:xlink="http://www.w3.org/1999/xlink" x="0px" y="0px"
	 viewBox="0 0 32 32" style="enable-background:new 0 0 32 32;" xml:space="preserve">
<style type="text/css">
	.st0{fill:#FF00F3;}
</style>
<g>
	<path class="st0" d="M5.7,20.8H2.6c0,0,0.6,1.2,0,2c-0.6,0.8,0,1.1,0,1.1s0.9-0.6,1,0.2c0.1,0.8,1.6,0,1.6,0s1.6-0.6,1.3-1.5
		c-0.2-0.8,0.8-0.7,0.8-0.7s-0.2-1,0.2-1.1s1,0.6,1.7,0s0.9-1,1.2,0c0.3,1,1.7,1.2,1.7,1.2s1.3,1,0,1.4S11.7,24,11.7,24
		s0.3,0.2,0.9,0.2c0.6-0.1,1-0.8,1-0.8v-0.8c0,0,0.6,0.1,0.6-0.3s-1.1-0.7-1.1-0.7l-1.3-1.2c0,0-0.9-1.4,0.8-0.3c0,0,0.8,1,1.6,1.1
		c0,0,0.8,0.1,0.6,1.2c0,0,0.5,0.5,0.3,1.4c-0.2,0.9,1,0.2,1,0.2v-0.8c0,0-0.3-1.5,0.9-1.3s1.1-0.4,1.1-0.4s-0.5-1.5,0.5-2
		c1-0.5,1.2,0,1.2,0s0.1,0.7,1,0.4c0.9-0.3-0.5-0.7-0.5-0.7s0.2-0.6,1.5-0.5c0,0-1.1,1.1,1.9,1.4c0,0,1.3,1.3,2,0.9
		c0.7-0.3,0.3-2,0.3-2L25.3,18c0,0-0.5-0.6,1-0.9c1.4-0.3,0.4-0.6,1.6,0c1.2,0.6,1-1.1,1-1.1s-0.6-0.7,0-0.8c0.6-0.1,0-1.6,0-1.6
		l-0.8-2.1c0,0-0.5-2.1,0.3-2.1c0.8-0.1,0.8-1,0.8-1s-1.9-0.8-2.6-0.5c-0.8,0.3,0.5,0.7,0.5,0.7l-3.2-0.1c0,0-0.4,0.9-1,0.9
		s-0.1-0.9-0.1-0.9l-1.3-0.2c0,0,0,0.9,0.4,1.2C22.4,9.9,21,9.7,21,9.7s-1,0.5-0.8,0.7c0.2,0.2-1.3,0-1.3,0l-0.6-1.1
		c0,0,1.6,0,1.4,0.6c-0.2,0.6,1.1-0.4,1.1-0.4s-0.6-1.1-1.7-0.9c-1,0.2-0.8-0.3-0.8-0.3S17.6,7.8,17,8c0,0-0.1-0.7-0.4-0.5
		s-2.9,0.2-2.9,0.2s-1,0.4-1.1,0.7S11,9.6,11,9.6s-0.4,1.3-1,1.2c0,0-1.3,0.6-1.4,0.9c0,0.3-0.7,2.4,1.2,1.6c1.8-0.8,1.1,0,1.1,0
		s-0.1,1.1,0.7,1.3c0.8,0.3,1.6-1,1.6-1s0-1,0.7-1c0,0-1.1-0.3-0.6-1c0.5-0.7,1.6-2.5,2.3-1.7c0.7,0.8-0.6,0.8-0.6,0.8
		S14,12,15.1,12.5s1.6-0.1,1.6-0.1s1.4,0.3,0.6,0.5c-0.8,0.2-1.4,0-1.4,0s-0.6,0.1-0.3,0.7c0.3,0.6-0.4,0.4-0.4,0.4s-1-0.9-0.6,0.3
		c0,0,0.5,1.1-0.6,1.1s-2.8-0.1-2.8-0.1s-0.8,0.7-0.7-1s-0.7-0.4-0.7-0.4s-0.2,1.1,0,1.6s-0.8,0.3-0.8,0.3s-1,0.3-1,0.7
		c0,0.4-1.4,1-1.4,1s-2,0.2-1.7,0.8c0.2,0.6,0.6,0.3,0.6,0.3s0.8,0.7,0.6,0.9C5.7,19.6,5.7,20.8,5.7,20.8z"/>
	<path class="st0" d="M10.1,21.4c0,0-0.3,0.2-0.2,0.5c0.1,0.3,0.6,0,0.6,0L10.1,21.4z"/>
	<path class="st0" d="M10.1,22.4c0,0-1,0.4-0.6,0.6c0.3,0.2,1.3,0,1.3,0L10.1,22.4z"/>
	<path class="st0" d="M3.7,14.8c-0.8,0.6-0.8,1-0.8,1v0.6l-0.4,0.4c0,0,1.4,0.4,1.6-0.2c0.1-0.7,0.4-1.1,0-1.4
		C3.7,14.8,3.7,14.8,3.7,14.8z"/>
	<path class="st0" d="M5.5,13c0,0-1.1,0.3-1,0.8c0.1,0.5,0.1,1.1,0.5,1.4C5.4,15.4,5,16,5,16s-0.2,0.9-0.5,0.9c-0.3,0.1,0.6,0.4,2,0
		c1.4-0.4,0-1.5,0-1.5s-1.2-0.5-1-1.1c0.2-0.5,0.5-1,0.2-1.2S5.5,13,5.5,13z"/>
	<path class="st0" d="M25.8,6c0,0,2.3-0.1,2.3-0.3c0-0.2-0.1-0.7-0.8-0.5c-0.6,0.2-2.1,0.4-2.1,0.4S23,6.8,24.1,7.3
		c1.2,0.5,1.5,0.2,1.5,0.2s-0.7-0.5-0.4-0.8C25.4,6.5,25.1,6.4,25.8,6z"/>
</g>
</svg>
